<mxfile host="Electron" modified="2023-12-07T17:50:48.651Z" agent="Mozilla/5.0 (Macintosh; Intel Mac OS X 10_15_7) AppleWebKit/537.36 (KHTML, like Gecko) draw.io/22.0.3 Chrome/114.0.5735.289 Electron/25.8.4 Safari/537.36" etag="VhbQ4s2Yz1FCT-XCRvYy" version="22.0.3" type="device">
  <diagram name="Page-1" id="jGG_jKn4ElZr85blgMok">
    <mxGraphModel dx="596" dy="2814" grid="1" gridSize="10" guides="1" tooltips="1" connect="1" arrows="1" fold="1" page="1" pageScale="1" pageWidth="827" pageHeight="1169" math="0" shadow="0">
      <root>
        <mxCell id="0" />
        <mxCell id="1" parent="0" />
        <mxCell id="pKOpV1o4Zqc4WDO5ToBv-4" value="" style="edgeStyle=orthogonalEdgeStyle;rounded=0;orthogonalLoop=1;jettySize=auto;html=1;" edge="1" parent="1" source="pKOpV1o4Zqc4WDO5ToBv-2" target="pKOpV1o4Zqc4WDO5ToBv-3">
          <mxGeometry relative="1" as="geometry" />
        </mxCell>
        <mxCell id="pKOpV1o4Zqc4WDO5ToBv-2" value="&lt;font style=&quot;font-size: 20px;&quot;&gt;START&lt;/font&gt;" style="strokeWidth=2;html=1;shape=mxgraph.flowchart.start_1;whiteSpace=wrap;" vertex="1" parent="1">
          <mxGeometry x="349" y="-2229" width="131" height="51" as="geometry" />
        </mxCell>
        <mxCell id="pKOpV1o4Zqc4WDO5ToBv-6" value="" style="edgeStyle=orthogonalEdgeStyle;rounded=0;orthogonalLoop=1;jettySize=auto;html=1;" edge="1" parent="1" source="pKOpV1o4Zqc4WDO5ToBv-3" target="pKOpV1o4Zqc4WDO5ToBv-5">
          <mxGeometry relative="1" as="geometry" />
        </mxCell>
        <mxCell id="pKOpV1o4Zqc4WDO5ToBv-7" value="False" style="edgeLabel;html=1;align=center;verticalAlign=middle;resizable=0;points=[];" vertex="1" connectable="0" parent="pKOpV1o4Zqc4WDO5ToBv-6">
          <mxGeometry x="-0.0141" y="2" relative="1" as="geometry">
            <mxPoint y="-2" as="offset" />
          </mxGeometry>
        </mxCell>
        <mxCell id="pKOpV1o4Zqc4WDO5ToBv-13" value="" style="edgeStyle=orthogonalEdgeStyle;rounded=0;orthogonalLoop=1;jettySize=auto;html=1;" edge="1" parent="1" source="pKOpV1o4Zqc4WDO5ToBv-3" target="pKOpV1o4Zqc4WDO5ToBv-12">
          <mxGeometry relative="1" as="geometry" />
        </mxCell>
        <mxCell id="pKOpV1o4Zqc4WDO5ToBv-14" value="True" style="edgeLabel;html=1;align=center;verticalAlign=middle;resizable=0;points=[];" vertex="1" connectable="0" parent="pKOpV1o4Zqc4WDO5ToBv-13">
          <mxGeometry x="-0.2694" y="1" relative="1" as="geometry">
            <mxPoint x="-1" y="3" as="offset" />
          </mxGeometry>
        </mxCell>
        <mxCell id="pKOpV1o4Zqc4WDO5ToBv-3" value="Get input from: &lt;br&gt;side1, side2, side3&lt;br&gt;(double number input)" style="shape=parallelogram;html=1;strokeWidth=2;perimeter=parallelogramPerimeter;whiteSpace=wrap;rounded=1;arcSize=12;size=0.23;" vertex="1" parent="1">
          <mxGeometry x="316.5" y="-2120" width="195" height="80" as="geometry" />
        </mxCell>
        <mxCell id="pKOpV1o4Zqc4WDO5ToBv-15" style="edgeStyle=orthogonalEdgeStyle;rounded=0;orthogonalLoop=1;jettySize=auto;html=1;entryX=0.5;entryY=0;entryDx=0;entryDy=0;exitX=0.5;exitY=0;exitDx=0;exitDy=0;" edge="1" parent="1" source="pKOpV1o4Zqc4WDO5ToBv-5" target="pKOpV1o4Zqc4WDO5ToBv-3">
          <mxGeometry relative="1" as="geometry">
            <mxPoint x="240" y="-2129.997741935484" as="sourcePoint" />
            <mxPoint x="376" y="-2170.03" as="targetPoint" />
            <Array as="points">
              <mxPoint x="219" y="-2150" />
              <mxPoint x="414" y="-2150" />
            </Array>
          </mxGeometry>
        </mxCell>
        <mxCell id="pKOpV1o4Zqc4WDO5ToBv-5" value="Invalid input,enter a double number" style="rounded=1;whiteSpace=wrap;html=1;absoluteArcSize=1;arcSize=14;strokeWidth=2;" vertex="1" parent="1">
          <mxGeometry x="160" y="-2120" width="118" height="80" as="geometry" />
        </mxCell>
        <mxCell id="pKOpV1o4Zqc4WDO5ToBv-12" value="Determining Triangle type" style="rounded=1;whiteSpace=wrap;html=1;absoluteArcSize=1;arcSize=14;strokeWidth=2;" vertex="1" parent="1">
          <mxGeometry x="355" y="-2000" width="118" height="80" as="geometry" />
        </mxCell>
        <mxCell id="pKOpV1o4Zqc4WDO5ToBv-32" value="" style="edgeStyle=orthogonalEdgeStyle;rounded=0;orthogonalLoop=1;jettySize=auto;html=1;" edge="1" parent="1" source="pKOpV1o4Zqc4WDO5ToBv-19" target="pKOpV1o4Zqc4WDO5ToBv-28">
          <mxGeometry relative="1" as="geometry" />
        </mxCell>
        <mxCell id="pKOpV1o4Zqc4WDO5ToBv-36" value="True" style="edgeLabel;html=1;align=center;verticalAlign=middle;resizable=0;points=[];" vertex="1" connectable="0" parent="pKOpV1o4Zqc4WDO5ToBv-32">
          <mxGeometry x="-0.3016" y="-1" relative="1" as="geometry">
            <mxPoint y="-1" as="offset" />
          </mxGeometry>
        </mxCell>
        <mxCell id="pKOpV1o4Zqc4WDO5ToBv-19" value="&lt;div style=&quot;&quot;&gt;&lt;span style=&quot;background-color: initial;&quot;&gt;s1 == s2&lt;/span&gt;&lt;/div&gt;&lt;div style=&quot;&quot;&gt;&lt;span style=&quot;background-color: initial;&quot;&gt;||&lt;/span&gt;&lt;/div&gt;&lt;div style=&quot;&quot;&gt;&lt;span style=&quot;background-color: initial;&quot;&gt;s1 == s3&lt;/span&gt;&lt;/div&gt;&lt;div style=&quot;&quot;&gt;&lt;span style=&quot;background-color: initial;&quot;&gt;||&lt;/span&gt;&lt;/div&gt;&lt;div style=&quot;&quot;&gt;&lt;span style=&quot;background-color: initial;&quot;&gt;s2 == s3&lt;/span&gt;&lt;/div&gt;" style="strokeWidth=2;html=1;shape=mxgraph.flowchart.decision;whiteSpace=wrap;align=center;" vertex="1" parent="1">
          <mxGeometry x="346" y="-1895" width="136" height="130" as="geometry" />
        </mxCell>
        <mxCell id="pKOpV1o4Zqc4WDO5ToBv-31" value="" style="edgeStyle=orthogonalEdgeStyle;rounded=0;orthogonalLoop=1;jettySize=auto;html=1;" edge="1" parent="1" source="pKOpV1o4Zqc4WDO5ToBv-20" target="pKOpV1o4Zqc4WDO5ToBv-29">
          <mxGeometry relative="1" as="geometry" />
        </mxCell>
        <mxCell id="pKOpV1o4Zqc4WDO5ToBv-34" value="True" style="edgeLabel;html=1;align=center;verticalAlign=middle;resizable=0;points=[];" vertex="1" connectable="0" parent="pKOpV1o4Zqc4WDO5ToBv-31">
          <mxGeometry x="-0.3016" y="-2" relative="1" as="geometry">
            <mxPoint x="1" y="1" as="offset" />
          </mxGeometry>
        </mxCell>
        <mxCell id="pKOpV1o4Zqc4WDO5ToBv-20" value="s1 == s2&lt;br&gt;&amp;amp;&amp;amp;&lt;br&gt;s2 == s3" style="strokeWidth=2;html=1;shape=mxgraph.flowchart.decision;whiteSpace=wrap;" vertex="1" parent="1">
          <mxGeometry x="200" y="-1880" width="100" height="100" as="geometry" />
        </mxCell>
        <mxCell id="pKOpV1o4Zqc4WDO5ToBv-33" value="" style="edgeStyle=orthogonalEdgeStyle;rounded=0;orthogonalLoop=1;jettySize=auto;html=1;" edge="1" parent="1" source="pKOpV1o4Zqc4WDO5ToBv-21" target="pKOpV1o4Zqc4WDO5ToBv-30">
          <mxGeometry relative="1" as="geometry" />
        </mxCell>
        <mxCell id="pKOpV1o4Zqc4WDO5ToBv-37" value="True" style="edgeLabel;html=1;align=center;verticalAlign=middle;resizable=0;points=[];" vertex="1" connectable="0" parent="pKOpV1o4Zqc4WDO5ToBv-33">
          <mxGeometry x="-0.3016" y="-1" relative="1" as="geometry">
            <mxPoint y="2" as="offset" />
          </mxGeometry>
        </mxCell>
        <mxCell id="pKOpV1o4Zqc4WDO5ToBv-21" value="&lt;font style=&quot;font-size: 14px;&quot;&gt;all sides&lt;br&gt;different&lt;/font&gt;" style="strokeWidth=2;html=1;shape=mxgraph.flowchart.decision;whiteSpace=wrap;" vertex="1" parent="1">
          <mxGeometry x="530" y="-1880" width="100" height="100" as="geometry" />
        </mxCell>
        <mxCell id="pKOpV1o4Zqc4WDO5ToBv-23" value="" style="endArrow=classic;html=1;rounded=0;entryX=0;entryY=0.5;entryDx=0;entryDy=0;entryPerimeter=0;exitX=1;exitY=0.5;exitDx=0;exitDy=0;exitPerimeter=0;endFill=1;" edge="1" parent="1" source="pKOpV1o4Zqc4WDO5ToBv-20" target="pKOpV1o4Zqc4WDO5ToBv-19">
          <mxGeometry width="50" height="50" relative="1" as="geometry">
            <mxPoint x="350" y="-1810" as="sourcePoint" />
            <mxPoint x="400" y="-1860" as="targetPoint" />
          </mxGeometry>
        </mxCell>
        <mxCell id="pKOpV1o4Zqc4WDO5ToBv-26" value="else&lt;br&gt;if" style="edgeLabel;html=1;align=center;verticalAlign=middle;resizable=0;points=[];" vertex="1" connectable="0" parent="pKOpV1o4Zqc4WDO5ToBv-23">
          <mxGeometry x="0.0081" y="1" relative="1" as="geometry">
            <mxPoint x="-4" as="offset" />
          </mxGeometry>
        </mxCell>
        <mxCell id="pKOpV1o4Zqc4WDO5ToBv-24" value="" style="endArrow=classic;html=1;rounded=0;entryX=0;entryY=0.5;entryDx=0;entryDy=0;entryPerimeter=0;exitX=1;exitY=0.5;exitDx=0;exitDy=0;exitPerimeter=0;endFill=1;" edge="1" parent="1" source="pKOpV1o4Zqc4WDO5ToBv-19" target="pKOpV1o4Zqc4WDO5ToBv-21">
          <mxGeometry width="50" height="50" relative="1" as="geometry">
            <mxPoint x="470" y="-1800" as="sourcePoint" />
            <mxPoint x="374" y="-1820" as="targetPoint" />
          </mxGeometry>
        </mxCell>
        <mxCell id="pKOpV1o4Zqc4WDO5ToBv-27" value="else" style="edgeLabel;html=1;align=center;verticalAlign=middle;resizable=0;points=[];" vertex="1" connectable="0" parent="pKOpV1o4Zqc4WDO5ToBv-24">
          <mxGeometry x="0.2184" relative="1" as="geometry">
            <mxPoint x="-9" y="-1" as="offset" />
          </mxGeometry>
        </mxCell>
        <mxCell id="pKOpV1o4Zqc4WDO5ToBv-25" style="edgeStyle=orthogonalEdgeStyle;rounded=0;orthogonalLoop=1;jettySize=auto;html=1;entryX=0.5;entryY=0;entryDx=0;entryDy=0;entryPerimeter=0;" edge="1" parent="1" source="pKOpV1o4Zqc4WDO5ToBv-12" target="pKOpV1o4Zqc4WDO5ToBv-20">
          <mxGeometry relative="1" as="geometry" />
        </mxCell>
        <mxCell id="pKOpV1o4Zqc4WDO5ToBv-49" value="if" style="edgeLabel;html=1;align=center;verticalAlign=middle;resizable=0;points=[];fontStyle=0;fontSize=14;" vertex="1" connectable="0" parent="pKOpV1o4Zqc4WDO5ToBv-25">
          <mxGeometry x="0.4687" y="3" relative="1" as="geometry">
            <mxPoint x="-3" y="10" as="offset" />
          </mxGeometry>
        </mxCell>
        <mxCell id="pKOpV1o4Zqc4WDO5ToBv-47" value="" style="edgeStyle=orthogonalEdgeStyle;rounded=0;orthogonalLoop=1;jettySize=auto;html=1;" edge="1" parent="1" source="pKOpV1o4Zqc4WDO5ToBv-28" target="pKOpV1o4Zqc4WDO5ToBv-45">
          <mxGeometry relative="1" as="geometry" />
        </mxCell>
        <mxCell id="pKOpV1o4Zqc4WDO5ToBv-28" value="&lt;div style=&quot;line-height: 18px; font-size: 12px;&quot;&gt;Isosceles&lt;/div&gt;&lt;div style=&quot;line-height: 18px; font-size: 12px;&quot;&gt;Triangle&lt;/div&gt;" style="shape=parallelogram;html=1;strokeWidth=2;perimeter=parallelogramPerimeter;whiteSpace=wrap;rounded=1;arcSize=12;size=0.23;labelBackgroundColor=none;fontColor=default;fontSize=12;fontFamily=Helvetica;" vertex="1" parent="1">
          <mxGeometry x="364" y="-1727" width="100" height="60" as="geometry" />
        </mxCell>
        <mxCell id="pKOpV1o4Zqc4WDO5ToBv-29" value="&lt;div style=&quot;line-height: 18px; font-size: 12px;&quot;&gt;Equilateral&lt;/div&gt;&lt;div style=&quot;line-height: 18px; font-size: 12px;&quot;&gt;Triangle&lt;br style=&quot;font-size: 12px;&quot;&gt;&lt;/div&gt;" style="shape=parallelogram;html=1;strokeWidth=2;perimeter=parallelogramPerimeter;whiteSpace=wrap;rounded=1;arcSize=12;size=0.23;labelBackgroundColor=none;fontColor=default;fontSize=12;fontFamily=Helvetica;" vertex="1" parent="1">
          <mxGeometry x="200" y="-1740" width="100" height="60" as="geometry" />
        </mxCell>
        <mxCell id="pKOpV1o4Zqc4WDO5ToBv-30" value="&lt;div style=&quot;line-height: 18px; font-size: 12px;&quot;&gt;Scalene&lt;/div&gt;&lt;div style=&quot;line-height: 18px; font-size: 12px;&quot;&gt;Triangle&lt;/div&gt;" style="shape=parallelogram;html=1;strokeWidth=2;perimeter=parallelogramPerimeter;whiteSpace=wrap;rounded=1;arcSize=12;size=0.23;fontColor=default;labelBackgroundColor=none;fontFamily=Helvetica;fontSize=12;" vertex="1" parent="1">
          <mxGeometry x="530" y="-1740" width="100" height="60" as="geometry" />
        </mxCell>
        <mxCell id="pKOpV1o4Zqc4WDO5ToBv-45" value="&lt;font style=&quot;font-size: 20px;&quot;&gt;END&lt;/font&gt;" style="strokeWidth=2;html=1;shape=mxgraph.flowchart.start_1;whiteSpace=wrap;" vertex="1" parent="1">
          <mxGeometry x="348" y="-1589" width="131" height="51" as="geometry" />
        </mxCell>
        <mxCell id="pKOpV1o4Zqc4WDO5ToBv-46" style="edgeStyle=orthogonalEdgeStyle;rounded=0;orthogonalLoop=1;jettySize=auto;html=1;entryX=0.5;entryY=0;entryDx=0;entryDy=0;entryPerimeter=0;" edge="1" parent="1" source="pKOpV1o4Zqc4WDO5ToBv-29" target="pKOpV1o4Zqc4WDO5ToBv-45">
          <mxGeometry relative="1" as="geometry">
            <Array as="points">
              <mxPoint x="267" y="-1640" />
              <mxPoint x="414" y="-1640" />
            </Array>
          </mxGeometry>
        </mxCell>
        <mxCell id="pKOpV1o4Zqc4WDO5ToBv-48" style="edgeStyle=orthogonalEdgeStyle;rounded=0;orthogonalLoop=1;jettySize=auto;html=1;entryX=0.5;entryY=0;entryDx=0;entryDy=0;entryPerimeter=0;" edge="1" parent="1" source="pKOpV1o4Zqc4WDO5ToBv-30" target="pKOpV1o4Zqc4WDO5ToBv-45">
          <mxGeometry relative="1" as="geometry">
            <Array as="points">
              <mxPoint x="562" y="-1640" />
              <mxPoint x="414" y="-1640" />
            </Array>
          </mxGeometry>
        </mxCell>
      </root>
    </mxGraphModel>
  </diagram>
</mxfile>
